<svg width="36" height="36" viewBox="0 0 36 36" fill="none" xmlns="http://www.w3.org/2000/svg">
<path d="M18 0.125C14.4647 0.125 11.0087 1.17335 8.06919 3.13748C5.12966 5.10161 2.83858 7.8933 1.48566 11.1595C0.132745 14.4258 -0.22124 18.0198 0.468471 21.4872C1.15818 24.9547 2.86061 28.1397 5.36047 30.6395C7.86034 33.1394 11.0454 34.8418 14.5128 35.5315C17.9802 36.2212 21.5742 35.8673 24.8405 34.5143C28.1067 33.1614 30.8984 30.8703 32.8625 27.9308C34.8267 24.9913 35.875 21.5353 35.875 18C35.8659 13.262 33.9798 8.72075 30.6295 5.3705C27.2793 2.02026 22.738 0.134085 18 0.125ZM24.4797 22.5203C24.7379 22.781 24.8827 23.1331 24.8827 23.5C24.8827 23.8669 24.7379 24.219 24.4797 24.4797C24.2169 24.7338 23.8656 24.8759 23.5 24.8759C23.1344 24.8759 22.7831 24.7338 22.5203 24.4797L18 19.9422L13.4797 24.4797C13.2169 24.7338 12.8656 24.8759 12.5 24.8759C12.1344 24.8759 11.7831 24.7338 11.5203 24.4797C11.2621 24.219 11.1173 23.8669 11.1173 23.5C11.1173 23.1331 11.2621 22.781 11.5203 22.5203L16.0578 18L11.5203 13.4797C11.3011 13.2125 11.189 12.8734 11.206 12.5282C11.2229 12.183 11.3677 11.8564 11.612 11.612C11.8564 11.3677 12.183 11.2229 12.5282 11.206C12.8734 11.189 13.2125 11.3011 13.4797 11.5203L18 16.0578L22.5203 11.5203C22.7875 11.3011 23.1266 11.189 23.4718 11.206C23.817 11.2229 24.1436 11.3677 24.388 11.612C24.6324 11.8564 24.7771 12.183 24.7941 12.5282C24.811 12.8734 24.699 13.2125 24.4797 13.4797L19.9422 18L24.4797 22.5203Z" fill="#98A2B3"/>
</svg>
