          <svg
            viewBox="0 0 24 24"
            xmlns="http://www.w3.org/2000/svg"
            fill="#389e95"
            width="70px"
            height="70px"
          >
            <g id="SVGRepo_bgCarrier" strokeWidth="0"></g>
            <g
              id="SVGRepo_tracerCarrier"
              stroke-linecap="round"
              stroke-linejoin="round"
              stroke="#389e95"
              stroke-width="0.384"
            ></g>
            <g id="SVGRepo_iconCarrier">
              <defs>
                <style>
                  {` .cls-1 {
                  fill: #389e95;
                }
                .cls-2 {
                  fill: #389e95;
                }
                .cls-3 {
                  fill: #389e95;
                }
                `}
                </style>
              </defs>
              <title>Icon_24px_DataFusion_Color</title>
              <g data-name="Product Icons">
                <path
                  className="cls-1"
                  d="M6,8h4V4H3A1,1,0,0,0,2,5V21a1,1,0,0,0,.28.68L6,18Z"
                ></path>
                <path
                  className="cls-2"
                  d="M16,18l3.72,3.72A1,1,0,0,0,20,21V14H16Z"
                ></path>
                <path
                  className="cls-3"
                  d="M21.71,2.28,18,6h0v4h4V3A1,1,0,0,0,21.71,2.28Z"
                ></path>
                <path
                  className="cls-1"
                  d="M18,6l3.72-3.72A1,1,0,0,0,21,2H14V6Z"
                ></path>
                <polygon
                  className="cls-3"
                  points="2 22 6 18 16 18 20 22 2 22"
                ></polygon>
              </g>
            </g>
          </svg>